<?xml version="1.0" standalone="no"?>
<!DOCTYPE svg PUBLIC "-//W3C//DTD SVG 20010904//EN"
 "http://www.w3.org/TR/2001/REC-SVG-20010904/DTD/svg10.dtd">
<svg version="1.0" xmlns="http://www.w3.org/2000/svg"
 width="515.000000pt" height="498.000000pt" viewBox="0 0 515.000000 498.000000"
 preserveAspectRatio="xMidYMid meet">
<metadata>
Created by potrace 1.12, written by Peter Selinger 2001-2015
</metadata>
<g transform="translate(0.000000,498.000000) scale(0.100000,-0.100000)"
fill="#000000" stroke="none">
<path d="M4211 4916 c-6 -7 -25 -16 -41 -20 -26 -5 -30 -10 -30 -39 l0 -34
-692 -6 c-683 -7 -692 -7 -713 13 -28 26 -84 26 -118 0 -17 -14 -40 -20 -75
-20 -45 0 -51 3 -54 23 -2 12 -9 21 -17 19 -7 -1 -42 -3 -77 -3 -51 -1 -64 -4
-64 -16 0 -13 2 -13 17 -2 9 8 14 9 10 2 -5 -7 1 -13 15 -16 13 -2 -19 -5 -70
-6 -80 -1 -96 2 -114 19 -29 27 -70 25 -105 -4 l-30 -25 -579 -2 -579 -2 -3
32 c-3 24 -9 32 -30 37 -15 4 -35 13 -44 21 -17 15 -58 10 -58 -8 0 -5 -13 -9
-29 -9 -42 0 -93 -60 -89 -106 1 -18 -1 -36 -5 -40 -4 -4 -7 -23 -7 -43 0 -28
9 -44 42 -78 23 -24 37 -43 30 -43 -7 0 -12 4 -12 9 0 14 -44 21 -52 8 -4 -7
-8 -44 -8 -82 0 -71 0 -71 45 -115 45 -44 57 -71 14 -31 -32 29 -44 22 -44
-26 0 -41 2 -43 456 -487 251 -245 456 -451 456 -459 0 -7 -5 -14 -11 -14 -6
0 -287 -214 -624 -476 -337 -262 -618 -476 -624 -474 -7 1 -25 20 -40 42 -36
53 -94 98 -116 91 -28 -10 -83 -66 -76 -79 4 -7 14 -20 22 -29 12 -14 12 -21
2 -33 -10 -12 -9 -16 4 -21 9 -3 16 -12 16 -19 0 -7 6 -18 14 -24 9 -8 12 -24
9 -49 -5 -35 -1 -42 43 -85 44 -43 53 -47 86 -44 24 3 42 -1 49 -9 12 -15 31
-19 26 -6 -1 4 3 8 8 9 6 1 9 -6 7 -17 -4 -24 13 -34 30 -16 12 11 18 8 43
-22 17 -20 361 -398 765 -840 449 -492 738 -816 743 -833 4 -15 17 -35 30 -44
18 -13 20 -18 10 -35 -8 -12 -9 -21 -3 -25 6 -3 10 -1 10 4 0 6 5 11 10 11 6
0 8 -10 5 -23 -4 -15 -1 -28 9 -36 10 -8 13 -23 9 -44 -4 -28 1 -40 43 -85 48
-52 86 -66 110 -42 6 6 21 -1 44 -21 25 -24 38 -29 49 -22 12 7 21 5 35 -9 11
-10 25 -18 31 -18 23 0 64 41 70 70 l7 30 89 0 c66 0 89 -3 89 -13 0 -7 18
-30 40 -52 l40 -39 25 24 c19 18 27 21 39 11 10 -9 16 -9 21 -1 4 6 4 14 1 17
-3 4 2 15 11 26 17 20 17 20 -2 13 l-20 -7 20 18 c33 30 76 55 83 48 4 -3 -16
-26 -43 -50 -32 -29 -44 -44 -33 -45 9 0 18 5 20 10 4 13 46 21 53 10 11 -18
47 0 96 49 45 45 50 54 44 81 -5 24 -1 37 24 68 22 29 27 42 19 50 -9 9 -7 17
8 33 10 11 19 27 19 35 0 8 385 426 855 928 671 718 856 911 865 900 8 -11 17
-7 50 21 26 23 43 31 49 25 23 -23 60 -9 108 42 43 44 49 55 44 81 -5 23 1 38
25 69 22 27 29 42 21 50 -7 7 -4 20 9 42 l19 33 -27 24 c-20 17 -23 18 -10 3
20 -24 14 -34 -20 -34 -31 0 -41 27 -17 45 17 13 17 16 4 25 -8 5 -18 10 -22
10 -12 0 -114 -103 -127 -128 -10 -19 -15 -21 -33 -11 -21 11 -1250 981 -1296
1022 -15 14 -19 24 -12 31 5 5 10 23 10 38 0 15 5 28 10 28 17 0 22 -27 10
-49 -9 -19 -7 -23 17 -32 15 -5 37 -9 49 -7 13 2 152 128 344 313 263 252 327
309 346 307 20 -3 24 1 24 23 0 18 12 38 35 59 27 25 35 40 35 68 0 42 -7 50
-31 38 -30 -17 -30 5 1 35 28 27 30 34 30 99 0 82 -8 101 -39 91 -30 -9 -26 9
10 39 28 24 30 30 24 66 -4 22 -10 40 -14 40 -4 0 -5 16 -3 36 4 30 -1 41 -29
70 -21 22 -42 34 -60 34 -14 0 -32 7 -39 15 -16 19 -34 19 -49 1z m-1391 -130
c0 -7 3 -7 8 1 9 14 352 16 352 2 0 -11 30 -10 -437 -14 -235 -2 -393 0 -393
5 0 8 140 14 398 17 46 0 72 -4 72 -11z m-966 -9 c-5 -8 -3 -8 7 1 7 6 24 12
37 12 16 0 21 -4 16 -12 -6 -10 -5 -10 7 -1 19 15 419 18 419 3 0 -5 -83 -9
-191 -9 -105 0 -193 -2 -197 -5 -11 -11 -98 -6 -111 7 -9 8 -12 8 -7 0 5 -8
-112 -11 -474 -12 -309 -1 -479 3 -475 9 4 6 129 9 326 9 176 0 322 1 325 3 2
2 76 5 164 6 122 1 159 -2 154 -11z m-773 -477 c233 -228 534 -523 669 -655
135 -132 337 -332 450 -445 113 -113 154 -155 90 -94 -129 124 -1514 1476
-1600 1562 -30 30 -50 53 -44 51 7 -2 203 -191 435 -419z m2979 411 c0 -17
-67 -19 -622 -17 -307 0 -558 -2 -558 -7 0 -12 -243 -7 -259 6 -11 9 -13 9 -8
0 6 -9 -59 -12 -268 -11 -151 0 -275 4 -275 8 0 5 88 8 195 7 107 -1 195 1
195 5 0 3 255 7 567 7 312 1 568 3 571 5 8 9 462 6 462 -3z m290 5 c0 -5
-1611 -1560 -1735 -1675 l-60 -56 65 66 c36 36 202 198 370 359 168 162 366
352 440 424 74 72 254 246 400 386 146 140 321 310 390 377 124 122 130 127
130 119z m-225 -16 c-3 -5 -13 -10 -21 -10 -8 0 -13 -4 -10 -9 3 -4 -3 -16
-14 -26 -11 -10 -20 -15 -20 -11 0 4 -14 -9 -31 -29 -17 -19 -35 -32 -40 -29
-5 3 -9 -1 -9 -9 0 -17 -46 -58 -56 -49 -4 4 -5 2 -1 -3 3 -6 -31 -46 -76 -89
-45 -43 -107 -102 -138 -132 -30 -30 -59 -51 -63 -47 -4 4 -6 3 -4 -3 3 -13
-131 -154 -147 -154 -6 0 -16 -9 -23 -21 -8 -12 -19 -18 -28 -15 -9 3 -14 -1
-14 -13 0 -18 -129 -148 -142 -143 -5 1 -8 -4 -8 -12 0 -8 -16 -28 -36 -45
-31 -27 -38 -30 -52 -19 -15 11 -15 11 -4 -4 14 -17 1 -35 -17 -23 -6 3 -14
-2 -19 -11 -8 -14 -10 -14 -15 -1 -3 9 11 31 39 58 34 34 47 40 56 31 7 -7 17
-12 23 -12 5 0 2 7 -7 14 -16 12 -14 17 29 57 26 24 51 43 55 42 4 -2 7 1 5 6
-3 11 144 157 156 153 5 -1 6 2 2 8 -3 5 -1 10 4 10 6 0 21 11 33 25 12 14 28
23 36 20 8 -3 10 0 6 6 -8 14 96 120 110 112 6 -3 8 -2 3 2 -9 11 43 66 55 59
5 -3 7 0 6 7 -2 6 3 14 11 17 8 3 11 0 7 -7 -4 -6 0 -11 10 -11 13 0 14 3 4
15 -17 20 -3 40 18 23 13 -11 15 -11 10 3 -10 26 207 235 268 259 59 23 57 22
49 10z m-2065 -10 c0 -5 -17 -9 -37 -9 -21 0 -261 -3 -533 -6 -329 -5 -503 -4
-520 3 -18 8 27 10 169 11 106 0 195 2 198 5 9 9 723 5 723 -4z m2192 -38
c-15 -12 -60 -55 -99 -94 -40 -39 -73 -65 -73 -57 0 12 -2 12 -9 -1 -6 -8 -8
-17 -6 -20 2 -4 -32 -40 -76 -81 -45 -41 -122 -116 -172 -167 -71 -72 -96 -92
-115 -90 -15 2 -27 -3 -30 -12 -4 -12 -3 -13 10 -3 19 16 32 5 17 -14 -9 -10
-15 -10 -25 -2 -8 6 -14 10 -15 8 0 -2 -2 -12 -4 -23 -4 -22 -126 -147 -137
-140 -4 3 -8 -1 -8 -9 0 -9 -41 -53 -92 -99 -50 -45 -100 -91 -111 -102 -16
-15 -21 -16 -28 -5 -13 22 -11 30 11 36 11 3 18 9 15 12 -2 4 27 36 65 70 39
34 70 58 70 54 0 -5 -6 -15 -12 -22 -11 -11 -9 -11 10 -1 15 7 21 17 18 27 -8
19 12 45 27 36 5 -3 7 -2 4 4 -7 11 69 90 78 81 3 -3 -1 -13 -10 -21 -22 -23
-18 -33 5 -12 11 10 18 26 15 35 -4 11 15 34 59 73 63 56 84 69 70 45 -4 -7 2
-5 13 5 11 9 23 14 27 10 4 -4 4 0 0 10 -6 17 -7 17 -20 0 -7 -10 -14 -13 -14
-7 0 13 79 88 103 97 10 4 17 2 17 -5 0 -6 3 -8 6 -5 4 4 2 12 -4 19 -8 10 2
25 41 61 29 27 94 90 146 140 51 51 91 84 87 75 -3 -10 -1 -18 4 -18 6 0 10
11 10 25 0 18 4 23 15 19 11 -5 13 -2 9 10 -4 11 -2 16 7 14 7 -2 13 3 14 10
0 17 35 43 47 36 5 -3 7 -2 6 3 -2 5 4 16 12 24 11 13 19 14 32 5 16 -10 15
-13 -10 -34z m-3369 -86 c-4 -5 -2 -6 4 -3 11 7 169 -151 165 -165 -1 -5 1 -7
5 -5 12 8 114 -96 117 -119 2 -10 9 -18 15 -16 7 1 19 -4 27 -13 9 -8 11 -15
5 -15 -5 0 -13 5 -16 10 -5 8 -11 8 -19 1 -17 -14 -58 41 -50 66 6 17 6 17 -8
0 -13 -18 -14 -18 -32 2 -10 11 -15 25 -11 30 3 6 0 11 -8 11 -21 0 -108 80
-100 93 3 5 2 8 -3 5 -5 -3 -20 6 -34 20 -14 14 -17 20 -7 12 15 -11 17 -11
11 4 -3 9 -14 16 -23 16 -24 1 -64 37 -55 51 4 8 3 9 -4 5 -14 -9 -102 71
-102 92 0 13 3 12 20 -3 11 -10 17 -22 13 -28 -4 -6 -1 -7 7 -2 7 5 11 4 8 -1
-3 -5 0 -15 8 -22 11 -10 14 -10 14 1 0 7 -11 24 -25 37 -14 13 -25 31 -25 39
0 10 21 -6 54 -39 30 -30 52 -59 49 -64z m84 90 c7 -1 20 -11 29 -22 8 -10 12
-13 8 -5 -5 10 -3 12 5 7 7 -5 10 -15 7 -23 -4 -10 -2 -13 8 -10 16 7 70 -46
59 -58 -5 -4 -3 -6 2 -2 6 3 32 -17 59 -44 26 -27 53 -49 60 -49 16 0 38 -24
31 -33 -3 -4 -2 -5 2 -2 11 8 33 -16 33 -36 0 -11 5 -19 11 -19 5 0 7 6 3 13
-4 6 2 4 12 -6 15 -14 16 -19 6 -26 -11 -7 -11 -9 2 -14 9 -4 16 -1 16 5 0 6
14 -4 31 -22 25 -25 28 -34 18 -41 -11 -7 -9 -9 7 -9 19 0 88 -60 68 -60 -5 0
2 -6 16 -13 14 -7 25 -20 25 -29 0 -9 4 -20 9 -25 5 -4 6 -3 2 5 -11 19 9 14
27 -6 10 -10 14 -22 10 -27 -5 -4 -3 -5 3 -2 14 8 58 -38 50 -52 -4 -6 -1 -9
6 -6 7 3 31 -12 53 -34 22 -21 43 -37 46 -35 4 2 13 -3 20 -12 10 -13 10 -17
-2 -26 -11 -8 -10 -9 5 -4 22 7 59 -21 49 -38 -3 -6 -2 -8 2 -3 11 9 46 -23
39 -35 -3 -4 -2 -7 3 -6 4 2 9 0 10 -5 2 -4 16 -19 33 -35 23 -20 29 -32 24
-50 -6 -22 -7 -22 -24 -5 -9 10 -33 31 -53 47 -20 15 -34 33 -30 39 3 5 2 7
-4 4 -11 -7 -69 52 -65 66 1 4 -2 6 -6 3 -5 -3 -17 3 -26 13 -10 10 -14 21 -9
23 4 3 3 4 -3 2 -15 -3 -69 52 -57 58 4 3 3 4 -3 2 -15 -3 -67 50 -57 59 3 4
-2 7 -12 7 -10 0 -15 3 -12 7 4 3 -3 11 -15 17 -12 6 -33 27 -45 45 -13 19
-23 30 -23 25 0 -5 -23 16 -50 45 -28 30 -50 51 -50 46 0 -5 -29 19 -65 55
-35 35 -62 67 -59 72 3 5 1 7 -3 6 -15 -5 -94 76 -88 90 3 7 0 10 -6 6 -13 -7
-69 44 -69 63 0 8 4 11 10 8 6 -4 7 1 3 11 -6 15 -7 15 -17 1 -10 -13 -16 -11
-43 18 -22 23 -28 36 -21 43 8 8 5 9 -9 6 -11 -3 -25 2 -34 12 -13 16 -12 17
6 10 11 -4 26 -9 32 -10z m3176 -2 c8 -8 -64 -85 -74 -79 -4 3 -64 -56 -135
-129 -70 -74 -131 -133 -135 -131 -4 3 -67 -58 -140 -135 -73 -76 -135 -137
-138 -134 -8 7 -111 -98 -105 -108 3 -5 0 -7 -7 -6 -7 2 -13 -4 -14 -12 0 -8
-5 -15 -11 -15 -6 0 -41 -33 -79 -72 -37 -40 -71 -71 -75 -68 -5 3 -65 -56
-136 -130 -70 -74 -130 -132 -135 -130 -4 3 -67 -58 -140 -135 -73 -76 -135
-137 -139 -135 -4 2 -24 -13 -45 -35 -21 -22 -41 -37 -45 -35 -12 7 456 463
498 484 12 7 20 16 17 21 -3 6 -1 18 4 27 8 14 10 14 11 3 0 -8 68 53 152 135
83 83 217 213 296 290 80 77 206 199 281 272 185 178 275 263 282 263 3 0 8
-3 12 -6z m-2992 -251 c125 -126 338 -336 473 -468 135 -132 334 -329 443
-437 109 -108 231 -224 272 -259 56 -47 70 -64 59 -70 -11 -6 -46 22 -129 104
-63 62 -218 213 -344 337 -279 272 -617 603 -862 843 -129 126 -175 177 -161
177 14 0 100 -79 249 -227z m1173 140 c-2 -21 -6 -77 -10 -126 -3 -48 -10 -85
-14 -82 -5 3 -7 -12 -5 -32 4 -30 3 -33 -4 -13 l-8 25 -4 -30 c-4 -27 -8 -30
-41 -33 -22 -2 -38 1 -38 7 0 6 17 12 38 12 25 2 29 3 12 6 l-25 4 -2 149 -3
150 54 0 54 0 -4 -37z m1545 13 c-4 -3 -686 -16 -1086 -19 -100 -1 -179 1
-175 5 4 4 97 9 207 11 347 5 1059 7 1054 3z m-2213 -398 c153 -151 158 -157
134 -167 -23 -9 -37 3 -194 159 -145 144 -168 171 -157 184 17 21 24 16 217
-176z m570 21 c-8 -33 -7 -42 7 -56 15 -16 16 -14 11 19 -4 19 -1 45 5 57 13
23 39 29 38 9 -1 -48 -1 -48 82 -46 l80 3 5 -29 c3 -16 6 -48 6 -73 l0 -44
-37 7 c-21 3 -60 16 -87 27 -26 11 -54 20 -62 20 -8 0 -13 6 -12 13 2 7 0 12
-3 11 -4 -1 -16 6 -26 16 -11 9 -22 14 -25 11 -3 -3 -8 16 -9 43 -4 43 -2 48
17 49 19 2 20 -1 10 -37z m-909 -56 c-12 33 9 25 54 -19 27 -26 45 -52 42 -58
-3 -6 -2 -8 2 -3 13 11 44 -23 38 -41 -5 -10 -3 -13 6 -8 8 5 46 -26 110 -90
54 -55 118 -116 144 -138 25 -21 47 -48 49 -60 2 -13 10 -20 20 -20 10 1 15
-2 12 -7 -3 -5 0 -9 7 -9 18 0 159 -142 152 -153 -3 -6 -2 -7 4 -4 10 6 49
-33 45 -45 -1 -5 2 -7 6 -5 4 1 32 -22 62 -52 30 -29 72 -67 93 -83 20 -16 35
-33 32 -38 -3 -4 5 -10 16 -13 12 -3 18 -10 14 -17 -5 -8 -13 -6 -26 6 -10 9
-16 21 -12 27 4 6 1 7 -7 2 -9 -5 -11 -4 -6 4 4 6 3 10 -2 9 -5 -2 -19 8 -31
21 -12 13 -24 22 -27 19 -3 -3 12 -22 33 -41 20 -20 34 -39 31 -43 -9 -9 -329
307 -322 318 3 5 0 7 -8 6 -7 -2 -13 6 -13 17 -1 12 -7 19 -15 17 -8 -2 -20 4
-26 13 -7 9 -16 17 -21 18 -4 1 -7 6 -5 10 1 5 -2 6 -7 3 -12 -8 -53 43 -44
57 3 6 1 7 -6 3 -14 -9 -113 83 -104 97 3 6 2 7 -4 4 -11 -7 -73 55 -73 73 0
6 -4 9 -9 6 -5 -3 -14 1 -21 9 -7 8 -9 15 -4 16 5 0 -2 5 -16 10 -13 6 -20 13
-15 17 6 4 11 13 13 21 3 12 1 12 -13 1 -14 -12 -20 -10 -46 18 -17 18 -26 37
-23 46 3 9 1 16 -6 16 -6 0 -8 -4 -5 -10 3 -5 2 -10 -4 -10 -11 0 -25 19 -26
35 -1 6 -6 9 -13 7 -16 -3 -125 102 -115 111 3 4 27 -13 51 -39 25 -25 42 -39
39 -31z m1097 -112 l41 -6 3 -55 3 -55 -66 -19 c-36 -10 -68 -23 -71 -27 -15
-25 -24 12 -24 101 l0 99 37 -15 c20 -9 55 -19 77 -23z m96 -101 c0 -23 4 -30
20 -30 18 0 20 -7 20 -56 0 -34 4 -53 10 -49 6 3 10 26 10 51 0 41 2 44 28 44
62 -1 54 -14 -95 -161 -175 -173 -213 -219 -213 -262 l0 -31 -40 39 c-38 37
-41 43 -38 89 3 47 4 50 43 63 35 12 44 12 73 -2 36 -17 52 -19 52 -7 0 4 -16
14 -35 21 l-36 13 3 96 3 97 36 17 c19 9 52 20 72 23 l37 7 0 -75 c0 -52 4
-78 14 -86 10 -8 16 -9 21 -1 3 5 1 10 -4 10 -24 0 -9 21 19 26 16 4 27 10 24
15 -3 5 -16 6 -30 3 l-24 -6 0 91 c0 74 3 91 15 91 10 0 15 -10 15 -30z m960
-149 c0 -13 -870 -851 -884 -851 -6 0 -2 8 9 19 116 108 657 630 750 722 65
65 121 119 122 119 2 0 3 -4 3 -9z m-488 -117 c-15 -12 -14 -12 8 -7 25 5 25
5 5 -11 -11 -10 -13 -14 -5 -10 8 4 2 -7 -14 -24 -17 -18 -35 -32 -40 -32 -6
0 -24 -16 -40 -36 -22 -28 -31 -33 -37 -23 -6 11 -9 9 -9 -7 0 -23 -42 -68
-53 -57 -4 3 -7 0 -7 -8 0 -8 -28 -41 -61 -74 -34 -33 -59 -54 -55 -48 5 9 2
11 -8 7 -9 -3 -13 -10 -10 -15 3 -5 2 -8 -3 -7 -4 2 -8 0 -8 -4 0 -14 -48 -57
-58 -51 -6 3 -7 1 -4 -4 7 -11 -56 -73 -73 -73 -6 0 -10 8 -10 18 0 22 83 105
95 95 4 -5 5 -3 2 3 -8 14 79 97 93 89 6 -4 9 -2 8 2 -4 13 114 129 127 125 5
-2 7 0 2 4 -9 10 22 44 40 44 8 0 12 4 8 9 -3 5 19 31 50 57 49 43 53 48 37
61 -15 11 -13 12 10 2 25 -11 26 -13 10 -25z m-941 -28 c0 -6 19 -25 42 -42
23 -17 41 -36 40 -42 -2 -6 3 -9 11 -6 8 3 42 -24 82 -64 81 -80 95 -98 87
-106 -4 -3 -1 -6 5 -6 17 0 67 -51 64 -64 -2 -6 0 -8 4 -3 9 8 54 -31 54 -47
0 -6 10 -16 23 -21 28 -13 30 -41 2 -37 -23 4 -65 40 -65 56 0 6 5 4 10 -4 8
-13 10 -12 10 4 0 13 -5 16 -16 12 -19 -7 -47 12 -38 25 3 5 0 9 -7 9 -7 0
-24 11 -38 24 -14 14 -58 55 -98 92 -40 37 -70 72 -66 77 3 6 2 7 -4 4 -7 -5
-153 132 -153 144 0 10 50 5 51 -5z m1046 -63 c1 -22 -67 -94 -80 -86 -6 3 -7
1 -4 -4 9 -15 -17 -35 -36 -27 -8 3 -18 0 -23 -7 -4 -7 -3 -10 4 -5 6 3 14 1
18 -5 4 -8 3 -9 -4 -5 -7 4 -12 1 -12 -8 0 -19 -147 -152 -163 -148 -7 2 -9 0
-5 -4 11 -10 -12 -35 -25 -27 -6 3 -7 1 -3 -6 4 -7 -2 -15 -16 -20 -28 -11
-48 4 -29 22 11 10 12 9 6 -3 -5 -9 -4 -12 1 -7 5 5 9 13 9 18 0 11 76 79 88
79 4 0 5 -6 1 -12 -4 -7 7 0 24 15 16 16 33 29 36 28 3 -1 5 1 4 2 -2 2 3 11
11 20 9 11 10 17 2 17 -10 0 -15 -14 -12 -33 1 -5 -3 -6 -9 -2 -6 4 -19 -4
-30 -17 -11 -13 -19 -19 -20 -14 0 17 175 186 188 181 7 -3 10 0 7 6 -4 6 1
19 11 30 14 15 20 17 32 6 13 -9 14 -9 8 1 -8 13 0 32 13 32 4 0 8 -8 8 -17z
m353 -57 c0 -2 -41 -43 -92 -92 -51 -49 -155 -150 -232 -224 -77 -74 -203
-196 -280 -270 -77 -74 -165 -159 -194 -188 -29 -29 -52 -46 -50 -38 3 15 828
815 841 816 4 0 7 -2 7 -4z m725 -591 c325 -256 590 -472 590 -477 0 -6 -11
-12 -25 -12 -33 -2 -108 -69 -129 -117 -9 -20 -184 -215 -389 -434 -204 -219
-369 -402 -365 -408 3 -6 2 -7 -4 -4 -8 5 -780 -809 -988 -1040 l-40 -45 -81
81 c-72 72 -84 81 -118 81 -22 0 -35 4 -31 10 3 5 25 10 48 10 35 0 47 -6 69
-30 21 -24 34 -30 66 -30 33 0 45 6 66 31 28 33 32 59 15 91 -6 11 -12 35 -14
52 -1 17 -7 56 -13 86 -6 30 -13 199 -16 375 -3 176 -8 415 -11 530 -4 191 -8
355 -19 902 l-4 182 361 349 362 349 40 -32 c22 -18 306 -243 630 -500z
m-2260 144 l223 -224 22 -1035 c18 -828 20 -1050 10 -1110 -6 -41 -14 -89 -17
-107 -4 -27 0 -38 25 -63 38 -38 79 -40 116 -5 14 13 26 30 26 37 0 13 63 14
100 2 23 -8 -8 -24 -46 -24 -25 0 -45 -15 -112 -84 -45 -46 -82 -80 -82 -76 0
5 -28 39 -62 76 -35 37 -88 94 -118 127 -30 33 -78 85 -106 116 -29 31 -76 83
-105 115 -30 33 -77 85 -105 115 -29 31 -76 83 -105 115 -52 58 -108 119 -215
235 -29 31 -76 83 -105 115 -30 33 -77 85 -105 115 -29 31 -74 81 -102 111
-27 30 -149 164 -271 298 -122 133 -221 248 -221 256 0 21 -32 56 -57 60 -11
3 -32 14 -46 26 -14 12 -29 22 -33 21 -12 -1 -16 -49 -5 -55 5 -4 7 4 3 16 -5
21 -4 22 11 9 13 -10 15 -17 6 -27 -17 -21 -42 -17 -58 8 -12 20 -11 24 20 51
19 16 26 26 16 23 -9 -3 -17 -1 -17 4 0 5 285 230 633 501 347 270 637 497
642 505 8 12 11 11 13 -4 2 -10 104 -120 227 -243z m505 -507 c-21 -7 -9 -32
15 -32 15 0 25 6 25 14 0 20 50 35 78 23 12 -6 22 -16 22 -24 0 -23 35 -10 38
15 2 12 8 22 13 22 6 0 8 4 5 8 -3 5 10 24 29 42 19 19 36 32 36 29 7 -24 43
-1925 37 -1930 -5 -3 -8 -19 -7 -35 2 -16 -1 -39 -5 -52 -7 -21 -13 -23 -59
-20 -48 3 -52 5 -52 28 0 24 -2 25 -77 28 -43 2 -78 -1 -78 -5 0 -4 33 -7 72
-6 40 1 67 0 61 -3 -7 -3 -13 -17 -13 -30 0 -31 -5 -30 -35 4 -13 15 -25 21
-25 14 0 -7 -5 -10 -10 -7 -6 4 -10 3 -9 -2 4 -21 -2 -33 -16 -33 -9 0 -15 9
-16 23 0 21 -1 21 -9 2 -8 -17 -9 -16 -11 10 l-2 30 -4 -27 c-4 -26 -8 -28
-51 -30 l-47 -1 50 -7 50 -7 -47 -1 c-43 -2 -49 1 -63 28 -8 16 -15 42 -15 58
0 15 -4 32 -9 38 -5 5 -12 151 -15 324 -3 173 -8 403 -11 510 -3 107 -7 308
-10 445 -4 216 -16 710 -17 725 -2 24 14 13 97 -70 52 -52 91 -96 85 -98z"/>
</g>
</svg>
